<svg xmlns="http://www.w3.org/2000/svg" version="1.1" xmlns:xlink="http://www.w3.org/1999/xlink" xmlns:svgjs="http://svgjs.dev/svgjs" width="1000" height="1000" viewBox="0 0 1000 1000"><rect width="1000" height="1000" fill="#ffffff"></rect><g transform="matrix(0.7,0,0,0.7,150.25135752216886,286.53720222921504)"><svg viewBox="0 0 269 164" data-background-color="#1f0f53" preserveAspectRatio="xMidYMid meet" height="609" width="1000" xmlns="http://www.w3.org/2000/svg" xmlns:xlink="http://www.w3.org/1999/xlink"><defs></defs><g id="tight-bounds" transform="matrix(1,0,0,1,-0.09659310494774331,0.12033505608428641)"><svg viewBox="0 0 269.1931862098955 163.75932988783143" height="163.75932988783143" width="269.1931862098955"><g><svg viewBox="0 0 269.1931862098955 163.75932988783143" height="163.75932988783143" width="269.1931862098955"><g><svg viewBox="0 0 269.1931862098955 163.75932988783143" height="163.75932988783143" width="269.1931862098955"><g><path d="M0 163.759v-163.759h269.193v163.759z" fill="#ffdb99" stroke="transparent" stroke-width="0" rx="0%" data-fill-palette-color="tertiary"></path><path d="M3.283 160.476v-157.193h262.627v157.193z" fill="#1f0f53" stroke="transparent" stroke-width="0" rx="0%" data-fill-palette-color="quaternary"></path><path d="M9.85 153.909v-144.059h249.493v144.059z" fill="#ffdb99" stroke="transparent" stroke-width="0" data-fill-palette-color="tertiary"></path></g><g transform="matrix(1,0,0,1,19.69974,19.69974)"><svg viewBox="0 0 229.7937062098955 124.35984988783144" height="124.35984988783144" width="229.7937062098955"><g><svg viewBox="0 0 229.7937062098955 100.57561757280003" height="100.57561757280003" width="229.7937062098955"><g transform="matrix(1,0,0,1,0,0)"><svg width="229.7937062098955" viewBox="2 -35.63999938964844 85.79000091552734 37.540000915527344" height="100.57561757280003" data-palette-color="#1f0f53"><path d="M22.71-10.35L17.97-11.23 17.43-13.43Q18.41-13.57 22.02-13.89 25.63-14.21 26.56-14.4L26.56-14.4 26.56 1.12 22.75 1.9Q22.71 1.42 22.71-0.42 22.71-2.25 22.66-2.78L22.66-2.78Q22.66-2.69 22.31-2.22 21.97-1.76 21.24-1.07 20.51-0.39 19.53 0.24 18.55 0.88 17.04 1.32 15.53 1.76 13.87 1.76L13.87 1.76Q2 1.76 2-16.7L2-16.7Q2-19.87 2.49-22.88 2.98-25.88 4.15-28.91 5.32-31.93 7.69-33.79 10.06-35.64 13.33-35.64L13.33-35.64Q16.16-35.64 19.19-34.67 22.22-33.69 24.37-32.23L24.37-32.23 22.41-29.98Q18.6-32.81 14.89-32.81L14.89-32.81Q12.45-32.81 10.69-31.64 8.94-30.47 8.03-28.81 7.13-27.15 6.62-24.61 6.1-22.07 5.98-20.21 5.86-18.36 5.86-15.87L5.86-15.87Q5.86-9.91 8.06-6.13 10.25-2.34 13.77-2.34L13.77-2.34Q15.28-2.34 16.72-2.83 18.16-3.32 19.19-4 20.21-4.69 21.04-5.42 21.88-6.15 22.29-6.64 22.71-7.13 22.71-7.23L22.71-7.23 22.71-10.35ZM50.19-4.74L50.19-4.74 50.68-2.59Q48.53-1.81 44.31-0.85 40.09 0.1 38.03 0.1L38.03 0.1Q35.94 0.1 34.37-1.29 32.81-2.69 32.03-4.86 31.25-7.03 30.88-9.16 30.52-11.28 30.52-13.33L30.52-13.33Q30.52-25.54 41.55-25.54L41.55-25.54Q44.19-25.54 46.19-23.85 48.19-22.17 48.19-19.48L48.19-19.48Q48.19-18.02 47.39-16.89 46.58-15.77 45.43-15.11 44.28-14.45 42.5-13.92 40.72-13.38 39.35-13.13 37.99-12.89 36.08-12.6 34.18-12.3 33.44-12.16L33.44-12.16Q33.49-10.74 33.62-9.67 33.74-8.59 34.1-7.35 34.47-6.1 35.08-5.3 35.69-4.49 36.77-3.96 37.84-3.42 39.3-3.42L39.3-3.42Q41.06-3.42 43.6-3.74 46.14-4.05 48.12-4.39 50.1-4.74 50.19-4.74ZM33.64-15.19L33.64-15.19Q40.28-17.09 44.53-19.19L44.53-19.19Q44.19-20.8 43.6-21.53 43.02-22.27 41.84-22.27L41.84-22.27Q38.86-22.27 36.45-20.21 34.03-18.16 33.64-15.19ZM67.67-23.54L67.67-23.54 67.18-21.58Q62.45-23.54 59.81-23.54L59.81-23.54Q57.47-23.54 56.51-22.83 55.56-22.12 55.56-19.82L55.56-19.82Q55.56-17.97 56.9-16.75 58.25-15.53 60.15-14.82 62.06-14.11 63.98-13.31 65.91-12.5 67.26-10.94 68.6-9.38 68.6-7.08L68.6-7.08Q68.6-3.96 66.3-1.61 64.01 0.73 60.35 0.78L60.35 0.78Q57.66 0.78 55.32-0.34 52.97-1.46 51.61-3.17L51.61-3.17 53.02-4.64Q53.61-4.39 54.76-3.86 55.9-3.32 56.39-3.15 56.88-2.98 57.83-2.78 58.78-2.59 59.86-2.59L59.86-2.59Q62.15-2.59 63.62-3.61 65.08-4.64 65.08-6.49L65.08-6.49Q65.08-7.71 64.4-8.57 63.72-9.42 62.59-9.96 61.47-10.5 60.13-10.99 58.78-11.47 57.44-12.08 56.1-12.7 54.98-13.55 53.85-14.4 53.17-15.87 52.49-17.33 52.49-19.34L52.49-19.34Q52.49-22.27 54.07-24.24 55.66-26.22 58.54-26.22L58.54-26.22Q59.66-26.22 61.08-25.88 62.5-25.54 63.33-25.24 64.16-24.95 65.79-24.29 67.43-23.63 67.67-23.54ZM84.9-23.63L84.9-23.63 85.44-21.44Q84.12-21.34 81.39-20.92 78.65-20.51 77.29-20.41L77.29-20.41Q77.53-18.7 77.58-15.92 77.63-13.13 77.7-11.11 77.78-9.08 78.14-7.06 78.51-5.03 79.66-3.96 80.8-2.88 82.76-2.88L82.76-2.88Q84.22-2.88 86.42-3.56L86.42-3.56Q87.35-1.76 87.79-0.93L87.79-0.93Q83.93 0.44 79.97 0.44L79.97 0.44Q78.51 0.44 77.43-0.44 76.36-1.32 75.77-2.64 75.19-3.96 74.82-5.98 74.46-8.01 74.36-9.81 74.26-11.62 74.26-13.96L74.26-13.96Q74.26-15.23 74.28-17.48 74.31-19.73 74.31-20.56L74.31-20.56Q73.82-20.51 72.01-20.48 70.21-20.46 69.91-20.46L69.91-20.46Q69.57-23.73 69.57-23.83L69.57-23.83Q69.91-23.73 70.7-23.73L70.7-23.73Q71.14-23.73 72.11-23.8 73.09-23.88 73.58-23.88L73.58-23.88Q73.77-23.88 74.09-23.85 74.41-23.83 74.5-23.83L74.5-23.83Q74.7-29.2 74.94-32.57L74.94-32.57 77.14-32.03Q77.19-30.86 77.21-29.52 77.24-28.17 77.26-26.54 77.29-24.9 77.29-24.02L77.29-24.02Q78.56-23.93 81.1-23.83 83.64-23.73 84.9-23.63Z" opacity="1" transform="matrix(1,0,0,1,0,0)" fill="#1f0f53" class="undefined-text-0" data-fill-palette-color="quaternary" id="text-0"></path></svg></g></svg></g><g transform="matrix(1,0,0,1,0,107.14219757280003)"><svg viewBox="0 0 229.7937062098955 17.217652315031412" height="17.217652315031412" width="229.7937062098955"><g transform="matrix(1,0,0,1,0,0)"><svg width="229.7937062098955" viewBox="2.5205881595611572 -36.45000076293945 619.8690795898438 46.45000076293945" height="17.217652315031412" data-palette-color="#1f0f53"><path d="M5.05-11.5L5.05-11.5Q4-11.45 3.3-12.03 2.6-12.6 2.53-13.63 2.45-14.65 3.05-15.35 3.65-16.05 4.65-16.15L4.65-16.15Q6.35-16.25 9.35-16.35 12.35-16.45 13.28-16.5 14.2-16.55 14.98-15.93 15.75-15.3 15.8-14.28 15.85-13.25 15.15-12.58 14.45-11.9 13.45-11.85L13.45-11.85Q12.45-11.8 9.6-11.7 6.75-11.6 5.05-11.5L5.05-11.5ZM35.24-1.5L35.24-1.5Q34.84-0.5 33.87-0.1 32.89 0.3 31.92-0.1 30.94-0.5 30.54-1.48 30.14-2.45 30.54-3.4L30.54-3.4Q31.54-5.85 33.17-10.85 34.8-15.85 35.49-17.6L35.49-17.6Q35.84-18.6 38.34-24.7L38.34-24.7Q40.7-30.7 41.99-34.45L41.99-34.45Q42.34-35.45 43.27-35.93 44.2-36.4 45.2-36.05L45.2-36.05Q45.64-35.9 45.99-35.6L45.99-35.6Q46.99-35.25 47.39-34.25L47.39-34.25 59.84-3.5Q60.25-2.5 59.84-1.53 59.45-0.55 58.47-0.15 57.5 0.25 56.52-0.15 55.55-0.55 55.14-1.5L55.14-1.5 51.39-11.2Q49.34-11.1 49.09-11.1L49.09-11.1Q42.34-10.85 38.49-10.85L38.49-10.85Q36.24-4.25 35.24-1.5L35.24-1.5ZM40.34-15.95L40.34-15.95Q44.55-16 49.34-16.15L49.34-16.15 44.8-27.15 40.34-15.95ZM104.24 0.15L104.24 0.15Q103.89 0.15 103.59 0.05L103.59 0.05Q102.14 0.3 101.19-0.8L101.19-0.8Q99.84-2.45 98.37-4.53 96.89-6.6 95.94-8.1L95.94-8.1 93.44-12.05 91.14-15.65Q87.74-20.9 83.34-26.7L83.34-26.7Q83.29-22.5 83.52-14.4 83.74-6.3 83.74-2.45L83.74-2.45Q83.74-1.4 83.02-0.68 82.29 0.05 81.24 0.05 80.19 0.05 79.47-0.68 78.74-1.4 78.74-2.45L78.74-2.45Q78.74-5.45 78.49-16.03 78.24-26.6 78.44-32.3L78.44-32.3Q78.49-33.05 78.79-33.85L78.79-33.85Q79.04-34.55 79.79-35.25L79.79-35.25Q80.59-35.8 81.64-35.7 82.69-35.6 83.34-34.8L83.34-34.8Q90.44-25.95 95.34-18.35L95.34-18.35 97.39-15.1 99.74-11.4 101.79-8.35Q102.04-25 101.89-33.2L101.89-33.2Q101.89-34.25 102.59-35 103.29-35.75 104.34-35.75 105.39-35.75 106.14-35.05 106.89-34.35 106.89-33.3L106.89-33.3Q106.99-27.05 106.74-2.3L106.74-2.3Q106.74-1.3 105.99-0.58 105.24 0.15 104.24 0.15L104.24 0.15ZM128.29-0.35L128.29-0.35Q121.69 1.25 117.74-3L117.74-3Q114.59-6.25 113.84-11.35L113.84-11.35Q113.29-15.35 114.79-18.95L114.79-18.95Q116.59-23.55 120.49-25.75L120.49-25.75Q121.29-26.2 122.49-26.4L122.49-26.4Q122.54-26.4 123.19-26.45L123.19-26.45Q123.44-26.5 123.59-26.55L123.59-26.55Q124.34-26.7 125.09-26.4L125.09-26.4Q125.29-26.4 126.04-26.38 126.79-26.35 127.04-26.33 127.29-26.3 127.91-26.23 128.54-26.15 128.94-26.05L128.94-26.05 129.89-25.7Q130.49-25.5 131.04-25.2 131.59-24.9 132.24-24.5L132.24-24.5Q135.49-22.3 136.74-18.32 137.99-14.35 137.39-11.9L137.39-11.9Q136.94-9.2 135.79-6.88 134.64-4.55 132.61-2.75 130.59-0.95 128.29-0.35L128.29-0.35ZM126.74-5.55L126.74-5.55Q128.89-5.85 130.41-7.78 131.94-9.7 132.41-11.85 132.89-14 132.06-16.57 131.24-19.15 129.44-20.3L129.44-20.3Q128.89-20.7 128.54-20.88 128.19-21.05 127.71-21.18 127.24-21.3 126.96-21.3 126.69-21.3 125.79-21.35 124.89-21.4 124.19-21.45L124.19-21.45Q124.04-21.45 123.84-21.5L123.84-21.5Q123.29-21.45 123.24-21.45L123.24-21.45 122.89-21.35Q120.69-20.15 119.51-17.53 118.34-14.9 118.84-12.1L118.84-12.1Q119.39-8.7 121.29-6.95L121.29-6.95Q123.34-5.05 126.74-5.55L126.74-5.55ZM150.79-0.15L150.79-0.15Q150.49-0.25 149.56-0.45 148.64-0.65 147.96-0.9 147.29-1.15 146.41-1.63 145.54-2.1 144.84-2.93 144.14-3.75 143.64-4.9L143.64-4.9Q143.09-6.25 142.94-10.2L142.94-10.2Q142.79-13.25 142.89-18.05L142.89-18.05Q142.89-18.95 142.94-21.05L142.94-21.05 142.54-21Q141.49-20.9 140.69-21.55 139.89-22.2 139.76-23.23 139.64-24.25 140.29-25.05 140.94-25.85 141.94-26L141.94-26 143.09-26.1Q143.14-28.75 143.24-31.45L143.24-31.45Q143.29-32.5 144.04-33.2 144.79-33.9 145.84-33.85 146.89-33.8 147.59-33.05 148.29-32.3 148.24-31.25L148.24-31.25 148.09-26.5 149.74-26.6Q150.79-26.65 151.56-26 152.34-25.35 152.41-24.3 152.49-23.25 151.84-22.48 151.19-21.7 150.14-21.6L150.14-21.6 147.94-21.5Q147.89-19.1 147.89-18L147.89-18Q147.79-13.3 147.94-10.35L147.94-10.35Q148.04-7.35 148.24-6.9 148.44-6.45 148.54-6.28 148.64-6.1 148.91-5.93 149.19-5.75 149.49-5.7 149.79-5.65 150.61-5.43 151.44-5.2 152.39-4.85L152.39-4.85Q153.34-4.55 153.81-3.63 154.29-2.7 153.96-1.73 153.64-0.75 152.71-0.28 151.79 0.2 150.79-0.15L150.79-0.15ZM171.23-0.8L171.23-0.8Q169.43-0.1 167.16 0 164.88 0.1 162.93-0.53 160.98-1.15 159.48-2.45L159.48-2.45Q156.88-4.6 156.13-7.8 155.38-11 156.08-13.55 156.78-16.1 158.21-18.53 159.63-20.95 161.31-22.63 162.98-24.3 165.18-25.45 167.38-26.6 169.78-26.58 172.18-26.55 174.83-25.25L174.83-25.25Q175.23-25.05 175.71-24.65 176.18-24.25 176.53-23.95L176.53-23.95 177.18-23.3Q177.48-23 177.48-22.95L177.48-22.95Q178.28-22.25 178.33-21.15L178.33-21.15Q178.98-18.15 179.18-14.85 179.38-11.55 179.31-8.65 179.23-5.75 179.38-2.5L179.38-2.5Q179.43-1.5 178.73-0.75 178.03 0 176.98 0.05 175.93 0.1 175.18-0.6 174.43-1.3 174.38-2.3L174.38-2.3 174.38-3.05Q172.88-1.5 171.23-0.8L171.23-0.8ZM168.98-5.3L168.98-5.3Q169.73-5.5 170.18-5.7 170.63-5.9 171.31-6.3 171.98-6.7 172.73-7.3 173.48-7.9 174.08-8.8L174.08-8.8Q174.18-8.9 174.33-9L174.33-9Q174.33-15.75 173.48-19.85L173.48-19.85Q173.33-20.05 173.16-20.23 172.98-20.4 172.91-20.5 172.83-20.6 172.71-20.68 172.58-20.75 172.43-20.85L172.43-20.85Q170.03-22.15 167.38-20.93 164.73-19.7 162.73-16.35L162.73-16.35Q160.73-12.95 160.76-10.43 160.78-7.9 162.68-6.25L162.68-6.25Q163.83-5.3 165.53-5.05 167.23-4.8 168.98-5.3L168.98-5.3ZM188.03 0L188.03 0Q186.98-0.05 186.28-0.83 185.58-1.6 185.63-2.6L185.63-2.6Q185.73-4.85 185.78-6.2L185.78-6.2Q185.83-7.95 185.88-9.98 185.93-12 185.96-13.4 185.98-14.8 185.96-16.78 185.93-18.75 185.93-19.83 185.93-20.9 185.91-23.63 185.88-26.35 185.86-27.08 185.83-27.8 185.78-30.28 185.73-32.75 185.73-33.25L185.73-33.25Q185.73-34.3 186.43-35.05 187.13-35.8 188.18-35.8 189.23-35.8 189.98-35.1 190.73-34.4 190.73-33.35L190.73-33.35Q190.88-26.65 190.88-24.95L190.88-24.95Q191.63-25.45 192.43-25.75L192.43-25.75Q195.83-27 198.58-26.43 201.33-25.85 203.53-23.8L203.53-23.8Q205.43-22 206.66-19.4 207.88-16.8 208.23-14.7L208.23-14.7Q209.08-8.35 206.03-4.05L206.03-4.05Q204.28-1.55 201.43-0.5L201.43-0.5Q198.63 0.6 194.98 0L194.98 0Q192.53-0.4 190.48-1.6L190.48-1.6Q190.18-0.85 189.51-0.4 188.83 0.05 188.03 0L188.03 0ZM195.78-4.9L195.78-4.9Q200.03-4.25 201.98-6.95L201.98-6.95Q203.88-9.65 203.28-14.05L203.28-14.05Q202.68-17.75 200.13-20.15L200.13-20.15Q197.63-22.45 194.23-21.15L194.23-21.15Q193.88-21 193.61-20.83 193.33-20.65 193.03-20.3L193.03-20.3 192.43-19.8Q192.23-19.55 191.73-18.98 191.23-18.4 190.93-18.1L190.93-18.1Q190.98-12.9 190.83-7.95L190.83-7.95 190.88-7.9Q192.58-5.45 195.78-4.9L195.78-4.9ZM218.53-2.4L218.53-2.4Q218.48-1.35 217.73-0.65 216.98 0.05 215.93 0 214.88-0.05 214.18-0.8 213.48-1.55 213.53-2.6L213.53-2.6Q213.73-9.25 213.73-12.7 213.73-16.15 213.63-23 213.53-29.85 213.53-33.3L213.53-33.3Q213.53-34.35 214.25-35.08 214.98-35.8 216.03-35.8 217.08-35.8 217.8-35.08 218.53-34.35 218.53-33.3L218.53-33.3Q218.53-29.85 218.63-23.5 218.73-17.15 218.7-11.98 218.68-6.8 218.53-2.4L218.53-2.4ZM236.93 0.25L236.93 0.25Q233.23 0 230.48-1.25 227.73-2.5 226.28-4.4 224.83-6.3 224.18-7.9 223.53-9.5 223.38-11.08 223.23-12.65 223.53-15.15L223.53-15.15Q223.88-17.25 225-19.3 226.13-21.35 228-22.98 229.88-24.6 232.53-25.48 235.18-26.35 238.18-26L238.18-26Q241.08-25.65 243.13-24.43 245.18-23.2 246.63-21.3L246.63-21.3Q247.88-19.7 248.15-18.9 248.43-18.1 248.65-17.4 248.88-16.7 249.03-16.2 249.18-15.7 249.3-15.18 249.43-14.65 249.48-13.95L249.48-13.95Q249.53-13 249.13-12.2 248.73-11.4 247.93-10.95L247.93-10.95Q247.28-10.7 246.53-10.7L246.53-10.7 237.98-10.55Q228.98-10.5 228.98-10.35L228.98-10.35 228.83-10.35Q229.48-7.8 231.55-6.35 233.63-4.9 237.23-4.65L237.23-4.65Q239.18-4.55 240.48-4.85L240.48-4.85Q241.93-5.25 242.58-5.58 243.23-5.9 244.18-6.45L244.18-6.45Q245.13-6.8 246.08-6.35 247.03-5.9 247.38-4.95 247.73-4 247.3-3.1 246.88-2.2 245.98-1.7L245.98-1.7Q245.18-1.25 244.33-0.93 243.48-0.6 241.83-0.15 240.18 0.3 236.93 0.25L236.93 0.25ZM228.93-15.25L228.93-15.25Q231.83-15.4 243.98-15.55L243.98-15.55Q243.53-17.05 242.53-18.4L242.53-18.4Q240.53-20.7 237.58-21.05L237.58-21.05Q234.48-21.45 232.13-19.73 229.78-18 228.93-15.25L228.93-15.25ZM272.12 0.1L272.12 0.1Q271.37 0.15 270.72-0.25L270.72-0.25Q269.92-0.5 269.45-1.18 268.97-1.85 268.97-2.7L268.97-2.7Q268.97-4.3 269.22-18.35L269.22-18.35Q269.27-20.65 269.07-25.7L269.07-25.7Q268.87-30.65 269.02-33.4L269.02-33.4Q269.07-34.45 269.85-35.15 270.62-35.85 271.62-35.8L271.62-35.8 271.82-35.8Q272.27-36.05 272.77-36.1L272.77-36.1Q275.07-36.3 276.42-36.38 277.77-36.45 280.22-36.45 282.67-36.45 284.42-36.13 286.17-35.8 288.3-35.05 290.42-34.3 292.07-33.1L292.07-33.1Q295.57-30.55 297.2-26.58 298.82-22.6 298.67-18.2L298.67-18.2Q298.52-13.95 296.77-10L296.77-10Q294.97-6.1 291.82-3.6L291.82-3.6Q288.07-0.6 281.67-0.1L281.67-0.1Q279.77 0.05 276.67 0.05L276.67 0.05Q273.32 0.05 272.12 0.1L272.12 0.1ZM274.02-4.95L276.67-4.95Q279.62-4.95 281.27-5.1L281.27-5.1Q285.82-5.45 288.42-7.5L288.42-7.5Q290.62-9.25 291.95-12.18 293.27-15.1 293.37-18.4L293.37-18.4Q293.52-21.7 292.37-24.5L292.37-24.5Q291.17-27.35 288.87-29L288.87-29Q287.02-30.35 284.47-30.95L284.47-30.95Q281.87-31.55 279.42-31.48 276.97-31.4 273.97-31.15L273.97-31.15Q273.92-29.7 274.07-25.9L274.07-25.9Q274.27-20.45 274.22-18.25L274.22-18.25Q274.22-16.75 274.17-14.08 274.12-11.4 274.07-9.15 274.02-6.9 274.02-4.95L274.02-4.95ZM315.82 0.25L315.82 0.25Q312.12 0 309.37-1.25 306.62-2.5 305.17-4.4 303.72-6.3 303.07-7.9 302.42-9.5 302.27-11.08 302.12-12.65 302.42-15.15L302.42-15.15Q302.77-17.25 303.89-19.3 305.02-21.35 306.89-22.98 308.77-24.6 311.42-25.48 314.07-26.35 317.07-26L317.07-26Q319.97-25.65 322.02-24.43 324.07-23.2 325.52-21.3L325.52-21.3Q326.77-19.7 327.04-18.9 327.32-18.1 327.54-17.4 327.77-16.7 327.92-16.2 328.07-15.7 328.19-15.18 328.32-14.65 328.37-13.95L328.37-13.95Q328.42-13 328.02-12.2 327.62-11.4 326.82-10.95L326.82-10.95Q326.17-10.7 325.42-10.7L325.42-10.7 316.87-10.55Q307.87-10.5 307.87-10.35L307.87-10.35 307.72-10.35Q308.37-7.8 310.44-6.35 312.52-4.9 316.12-4.65L316.12-4.65Q318.07-4.55 319.37-4.85L319.37-4.85Q320.82-5.25 321.47-5.58 322.12-5.9 323.07-6.45L323.07-6.45Q324.02-6.8 324.97-6.35 325.92-5.9 326.27-4.95 326.62-4 326.19-3.1 325.77-2.2 324.87-1.7L324.87-1.7Q324.07-1.25 323.22-0.93 322.37-0.6 320.72-0.15 319.07 0.3 315.82 0.25L315.82 0.25ZM307.82-15.25L307.82-15.25Q310.72-15.4 322.87-15.55L322.87-15.55Q322.42-17.05 321.42-18.4L321.42-18.4Q319.42-20.7 316.47-21.05L316.47-21.05Q313.37-21.45 311.02-19.73 308.67-18 307.82-15.25L307.82-15.25ZM345.47 0.25L345.47 0.25Q341.77 0 339.02-1.25 336.27-2.5 334.82-4.4 333.37-6.3 332.72-7.9 332.07-9.5 331.92-11.08 331.77-12.65 332.07-15.15L332.07-15.15Q332.42-17.25 333.54-19.3 334.67-21.35 336.54-22.98 338.42-24.6 341.07-25.48 343.72-26.35 346.72-26L346.72-26Q349.62-25.65 351.67-24.43 353.72-23.2 355.17-21.3L355.17-21.3Q356.42-19.7 356.69-18.9 356.97-18.1 357.19-17.4 357.42-16.7 357.57-16.2 357.72-15.7 357.84-15.18 357.97-14.65 358.02-13.95L358.02-13.95Q358.07-13 357.67-12.2 357.27-11.4 356.47-10.95L356.47-10.95Q355.82-10.7 355.07-10.7L355.07-10.7 346.52-10.55Q337.52-10.5 337.52-10.35L337.52-10.35 337.37-10.35Q338.02-7.8 340.09-6.35 342.17-4.9 345.77-4.65L345.77-4.65Q347.72-4.55 349.02-4.85L349.02-4.85Q350.47-5.25 351.12-5.58 351.77-5.9 352.72-6.45L352.72-6.45Q353.67-6.8 354.62-6.35 355.57-5.9 355.92-4.95 356.27-4 355.84-3.1 355.42-2.2 354.52-1.7L354.52-1.7Q353.72-1.25 352.87-0.93 352.02-0.6 350.37-0.15 348.72 0.3 345.47 0.25L345.47 0.25ZM337.47-15.25L337.47-15.25Q340.37-15.4 352.52-15.55L352.52-15.55Q352.07-17.05 351.07-18.4L351.07-18.4Q349.07-20.7 346.12-21.05L346.12-21.05Q343.02-21.45 340.67-19.73 338.32-18 337.47-15.25L337.47-15.25ZM382.41 0L382.41 0Q381.61 0 380.96-0.45 380.31-0.9 380.06-2.15L380.06-2.15Q377.91-0.6 375.56-0.15L375.56-0.15Q372.31 0.45 369.61-0.5 366.91-1.45 365.06-3.65L365.06-3.65Q361.71-7.55 361.76-13.55L361.76-13.55Q361.81-18.95 365.26-22.85L365.26-22.85Q369.41-27.5 376.16-26.3L376.16-26.3Q378.46-25.9 379.66-25.25L379.66-25.25 379.56-33.25Q379.56-34.3 380.29-35.05 381.01-35.8 382.04-35.8 383.06-35.8 383.81-35.08 384.56-34.35 384.56-33.35L384.56-33.35Q384.91-10.55 384.91-2.5L384.91-2.5Q384.91-1.45 384.19-0.73 383.46 0 382.41 0L382.41 0ZM374.66-5.05L374.66-5.05Q375.61-5.25 376.66-5.75 377.71-6.25 378.14-6.58 378.56-6.9 378.79-7.15 379.01-7.4 379.31-7.73 379.61-8.05 379.86-8.75L379.86-8.75Q379.86-15.1 379.76-18.85L379.76-18.85Q379.71-18.85 379.66-18.9L379.66-18.9Q377.56-20.7 377.56-20.75L377.56-20.75Q377.01-21.1 375.26-21.4L375.26-21.4Q371.26-22.1 369.01-19.5L369.01-19.5Q366.76-17.05 366.76-13.55L366.76-13.55Q366.71-9.4 368.86-6.88 371.01-4.35 374.66-5.05L374.66-5.05ZM417.26 0.15L417.26 0.15Q414.66-0.2 412.51-1.23 410.36-2.25 408.86-3.75 407.36-5.25 406.23-7.15 405.11-9.05 404.63-11.13 404.16-13.2 403.98-15.4 403.81-17.6 404.06-19.65L404.06-19.65Q404.36-22.25 405.23-24.7 406.11-27.15 407.61-29.33 409.11-31.5 411.08-33.02 413.06-34.55 415.71-35.25 418.36-35.95 421.01-36.05L421.01-36.05Q422.21-36.1 423.51-35.95L423.51-35.95Q425.96-35.65 427.46-35.15L427.46-35.15Q430.91-34 433.18-31.63 435.46-29.25 436.46-26.38 437.46-23.5 437.48-20.28 437.51-17.05 436.73-13.95 435.96-10.85 434.36-8 432.76-5.15 430.16-3.13 427.56-1.1 424.18-0.23 420.81 0.65 417.26 0.15L417.26 0.15ZM418.01-4.95L418.01-4.95Q422.66-4.1 426.66-6.9L426.66-6.9Q430.71-9.7 431.96-15.3L431.96-15.3Q432.71-18.7 432.31-21.73 431.91-24.75 430.21-27.03 428.51-29.3 426.11-30.25L426.11-30.25Q424.96-30.7 424.28-30.85 423.61-31 422.66-31L422.66-31Q421.91-31 421.01-31.05L421.01-31.05Q420.06-31.1 418.51-30.9L418.51-30.9Q415.66-30.55 412.66-27.38 409.66-24.2 409.11-19.1L409.11-19.1Q408.71-15.55 409.48-12.45 410.26-9.35 412.51-7.45L412.51-7.45Q414.71-5.6 418.01-4.95L418.01-4.95ZM445.66 0L445.66 0Q444.66 0 443.91-0.68 443.16-1.35 443.16-2.5L443.16-2.5 443.06-12.7Q443.01-16.15 443.01-21.3L443.01-21.3 443.01-24.25Q443.01-25.4 443.71-26.05 444.41-26.7 445.41-26.7L445.41-26.7Q446.46-26.7 447.23-26.03 448.01-25.35 448.01-24.15L448.01-24.15 448.01-22.65Q448.56-23.85 450.06-24.7L450.06-24.7Q452.11-25.95 454.56-25.95L454.56-25.95Q456.41-25.95 457.41-25.35 458.41-24.75 458.41-23.2L458.41-23.2Q458.41-22.2 457.81-21.53 457.21-20.85 456.06-20.85L456.06-20.85Q451.86-20.85 450.26-19.7L450.26-19.7Q449.36-19.1 448.68-18.25 448.01-17.4 448.01-16.6L448.01-16.6 448.11-10.35 448.16-2.5Q448.16-1.35 447.41-0.68 446.66 0 445.66 0L445.66 0ZM499.8-0.2L499.8-0.2Q493.05-0.1 478.55-0.35L478.55-0.35Q477.55-0.35 476.83-1.1 476.1-1.85 476.1-2.85L476.1-2.85Q475.8-3.45 475.8-4.1L475.8-4.1Q475.9-7.5 475.9-13.9 475.9-20.3 475.95-22.6L475.95-22.6Q475.95-23.45 475.9-25.58 475.85-27.7 475.9-29.53 475.95-31.35 476.2-32.95L476.2-32.95Q476.3-33.65 476.8-34.2 477.3-34.75 478-34.95L478-34.95Q478.65-35.55 479.6-35.6L479.6-35.6Q483.3-35.7 490.18-35.75 497.05-35.8 499.55-35.8L499.55-35.8Q500.6-35.8 501.33-35.08 502.05-34.35 502.05-33.3 502.05-32.25 501.33-31.53 500.6-30.8 499.55-30.8L499.55-30.8Q496.9-30.8 490.63-30.75 484.35-30.7 480.95-30.65L480.95-30.65Q480.8-29.95 480.88-26.83 480.95-23.7 480.95-22.5L480.95-22.5 480.95-20.45Q483.4-20.6 486.18-20.6 488.95-20.6 492.48-20.55 496-20.5 497.7-20.5L497.7-20.5Q498.75-20.5 499.48-19.78 500.2-19.05 500.2-18 500.2-16.95 499.48-16.23 498.75-15.5 497.7-15.5L497.7-15.5Q495.95-15.5 492.43-15.55 488.9-15.6 486.15-15.6 483.4-15.6 480.9-15.45L480.9-15.45Q480.9-8.35 480.85-5.3L480.85-5.3Q493.05-5.1 499.7-5.2L499.7-5.2Q500.75-5.2 501.5-4.5 502.25-3.8 502.25-2.75 502.25-1.7 501.55-0.95 500.85-0.2 499.8-0.2L499.8-0.2ZM522.2-1.1L515.55-10Q512.75-6.05 510-1.25L510-1.25Q509.5-0.35 508.5-0.08 507.5 0.2 506.6-0.33 505.7-0.85 505.42-1.85 505.15-2.85 505.7-3.75L505.7-3.75Q508.95-9.1 512.35-14.25L512.35-14.25 506.15-22.5Q505.5-23.35 505.67-24.38 505.85-25.4 506.67-26.03 507.5-26.65 508.52-26.48 509.55-26.3 510.15-25.5L510.15-25.5 515.35-18.65Q518.05-22.15 520.85-25.6L520.85-25.6Q521.5-26.4 522.52-26.53 523.55-26.65 524.35-26 525.15-25.35 525.25-24.35L525.25-24.35Q525.4-23.3 524.75-22.5L524.75-22.5Q521.6-18.7 518.5-14.4L518.5-14.4 526.3-3.9Q526.9-3.05 526.7-2.05 526.5-1.05 525.65-0.45 524.8 0.15 523.8-0.05 522.8-0.25 522.2-1.1L522.2-1.1ZM535.89 7.55L535.89 7.55Q535.89 8.6 535.14 9.3 534.39 10 533.35 10 532.29 10 531.6 9.25 530.89 8.5 530.89 7.45L530.89 7.45Q531.1-2.4 531.1-24L531.1-24Q531.1-25.05 531.82-25.78 532.54-26.5 533.6-26.5L533.6-26.5Q534.35-26.5 534.97-25.83 535.6-25.15 535.89-24.15L535.89-24.15 536.6-24.6Q539.6-26.4 542.54-26.55 545.5-26.7 547.85-25.25L547.85-25.25Q550.04-24 551.57-21.75 553.1-19.5 553.79-16.85L553.79-16.85Q554.35-14.95 554.39-12.8 554.44-10.65 553.85-8.8 553.25-6.95 552.1-5.15 550.94-3.35 548.87-2 546.79-0.65 544.1-0.15L544.1-0.15Q539.44 0.7 536.04-1.75L536.04-1.75Q536 2.9 535.89 7.55L535.89 7.55ZM543.19-5.05L543.19-5.05Q547-5.75 548.52-8.68 550.04-11.6 549-15.55L549-15.55Q547.94-19.45 545.35-20.9L545.35-20.9Q542.69-22.45 539.19-20.3L539.19-20.3Q537.6-19.35 537.35-19.05L537.35-19.05Q537.19-18.9 537.1-18.78 537-18.65 536.75-18.2L536.75-18.2 536.1-17.3 536.1-9.1Q536.35-8.85 536.5-8.55L536.5-8.55Q537.89-6.35 539.44-5.5 541-4.65 543.19-5.05L543.19-5.05ZM564.64-2.4L564.64-2.4Q564.59-1.35 563.84-0.65 563.09 0.05 562.04 0 560.99-0.05 560.29-0.8 559.59-1.55 559.64-2.6L559.64-2.6Q559.84-9.25 559.84-12.7 559.84-16.15 559.74-23 559.64-29.85 559.64-33.3L559.64-33.3Q559.64-34.35 560.37-35.08 561.09-35.8 562.14-35.8 563.19-35.8 563.92-35.08 564.64-34.35 564.64-33.3L564.64-33.3Q564.64-29.85 564.74-23.5 564.84-17.15 564.82-11.98 564.79-6.8 564.64-2.4L564.64-2.4ZM584.29-0.35L584.29-0.35Q577.69 1.25 573.74-3L573.74-3Q570.59-6.25 569.84-11.35L569.84-11.35Q569.29-15.35 570.79-18.95L570.79-18.95Q572.59-23.55 576.49-25.75L576.49-25.75Q577.29-26.2 578.49-26.4L578.49-26.4Q578.54-26.4 579.19-26.45L579.19-26.45Q579.44-26.5 579.59-26.55L579.59-26.55Q580.34-26.7 581.09-26.4L581.09-26.4Q581.29-26.4 582.04-26.38 582.79-26.35 583.04-26.33 583.29-26.3 583.91-26.23 584.54-26.15 584.94-26.05L584.94-26.05 585.89-25.7Q586.49-25.5 587.04-25.2 587.59-24.9 588.24-24.5L588.24-24.5Q591.49-22.3 592.74-18.32 593.99-14.35 593.39-11.9L593.39-11.9Q592.94-9.2 591.79-6.88 590.64-4.55 588.61-2.75 586.59-0.95 584.29-0.35L584.29-0.35ZM582.74-5.55L582.74-5.55Q584.89-5.85 586.41-7.78 587.94-9.7 588.41-11.85 588.89-14 588.06-16.57 587.24-19.15 585.44-20.3L585.44-20.3Q584.89-20.7 584.54-20.88 584.19-21.05 583.71-21.18 583.24-21.3 582.96-21.3 582.69-21.3 581.79-21.35 580.89-21.4 580.19-21.45L580.19-21.45Q580.04-21.45 579.84-21.5L579.84-21.5Q579.29-21.45 579.24-21.45L579.24-21.45 578.89-21.35Q576.69-20.15 575.51-17.53 574.34-14.9 574.84-12.1L574.84-12.1Q575.39-8.7 577.29-6.95L577.29-6.95Q579.34-5.05 582.74-5.55L582.74-5.55ZM599.14-2.4L599.14-2.4Q599.04-6.15 599.16-13.9 599.29-21.65 599.29-24.05L599.29-24.05Q599.29-25.1 600.01-25.83 600.74-26.55 601.79-26.55 602.84-26.55 603.56-25.83 604.29-25.1 604.29-24.05L604.29-24.05Q604.29-21.65 604.16-13.95 604.04-6.25 604.14-2.5L604.14-2.5Q604.14-1.45 603.44-0.7 602.74 0.05 601.69 0.05 600.64 0.05 599.89-0.65 599.14-1.35 599.14-2.4L599.14-2.4ZM603.79-35.2L603.79-35.2Q604.64-34.35 604.64-33.1 604.64-31.85 603.79-31 602.94-30.15 601.69-30.15 600.44-30.15 599.59-31 598.74-31.85 598.74-33.1 598.74-34.35 599.59-35.2 600.44-36.05 601.71-36.08 602.99-36.1 603.79-35.2L603.79-35.2ZM619.08-0.15L619.08-0.15Q618.78-0.25 617.86-0.45 616.93-0.65 616.26-0.9 615.58-1.15 614.71-1.63 613.83-2.1 613.13-2.93 612.43-3.75 611.93-4.9L611.93-4.9Q611.38-6.25 611.23-10.2L611.23-10.2Q611.08-13.25 611.18-18.05L611.18-18.05Q611.18-18.95 611.23-21.05L611.23-21.05 610.83-21Q609.78-20.9 608.98-21.55 608.18-22.2 608.06-23.23 607.93-24.25 608.58-25.05 609.23-25.85 610.23-26L610.23-26 611.38-26.1Q611.43-28.75 611.53-31.45L611.53-31.45Q611.58-32.5 612.33-33.2 613.08-33.9 614.13-33.85 615.18-33.8 615.88-33.05 616.58-32.3 616.53-31.25L616.53-31.25 616.38-26.5 618.03-26.6Q619.08-26.65 619.86-26 620.63-25.35 620.71-24.3 620.78-23.25 620.13-22.48 619.48-21.7 618.43-21.6L618.43-21.6 616.23-21.5Q616.18-19.1 616.18-18L616.18-18Q616.08-13.3 616.23-10.35L616.23-10.35Q616.33-7.35 616.53-6.9 616.73-6.45 616.83-6.28 616.93-6.1 617.21-5.93 617.48-5.75 617.78-5.7 618.08-5.65 618.91-5.43 619.73-5.2 620.68-4.85L620.68-4.85Q621.63-4.55 622.11-3.63 622.58-2.7 622.26-1.73 621.93-0.75 621.01-0.28 620.08 0.2 619.08-0.15L619.08-0.15Z" opacity="1" transform="matrix(1,0,0,1,0,0)" fill="#1f0f53" class="undefined-text-1" data-fill-palette-color="quaternary" id="text-1"></path></svg></g></svg></g></svg></g></svg></g><g></g></svg></g></svg><rect width="269.1931862098955" height="163.75932988783143" fill="none" stroke="none" visibility="hidden"></rect></g></svg></g></svg>